<?xml version="1.0" encoding="utf-8"?><!-- Uploaded to: SVG Repo, www.svgrepo.com, Generator: SVG Repo Mixer Tools -->
<svg width="800px" height="800px" viewBox="0 0 24 24" fill="none" xmlns="http://www.w3.org/2000/svg">
<path fill-rule="evenodd" clip-rule="evenodd" d="M12 1.00024C9.13684 1.00024 7.382 2.04725 6.3492 3.33044L7.77604 4.75728C8.3024 4.01927 9.23979 3.26447 11 3.0563V7.98124L14.019 11.0002H17V13.9812L19 15.9812L19 6.99461C18.9976 6.66826 18.9507 6.34234 18.8868 6.02288C18.7772 5.4748 18.5566 4.7343 18.1075 3.98575C17.1704 2.42399 15.3388 1.00024 12 1.00024ZM17 9.00024V7.00513C16.9937 6.8071 16.9645 6.60911 16.9257 6.41511C16.8478 6.02569 16.6934 5.51618 16.3925 5.01474C15.9057 4.20339 14.9662 3.28883 13 3.0563V9.00024H17Z" fill="#0F0F0F"/>
<path d="M5 17.0015L5 7.94564L8.0546 11.0002H7V16.9954C7.00626 17.1935 7.03552 17.3913 7.07433 17.5854C7.15222 17.9748 7.30663 18.4843 7.60749 18.9857C8.17044 19.924 9.33878 21.0002 12 21.0002C14.4604 21.0002 15.6447 20.0803 16.2543 19.2L17.6835 20.6291C16.6551 21.9309 14.8936 23.0002 12 23.0002C8.66122 23.0002 6.82956 21.5765 5.89251 20.0147C5.44337 19.2662 5.22278 18.5257 5.11317 17.9776C5.04926 17.6581 5.00058 17.3283 5 17.0015Z" fill="#0F0F0F"/>
<path d="M2.00789 2.00798C1.61737 2.39851 1.61737 3.03167 2.00789 3.42219L20.5862 22.0005C20.9767 22.3911 21.6099 22.3911 22.0004 22.0005C22.391 21.61 22.391 20.9768 22.0004 20.5863L3.4221 2.00798C3.03158 1.61746 2.39841 1.61746 2.00789 2.00798Z" fill="#0F0F0F"/>
</svg>